<svg id="Layer_1" enable-background="new 0 0 512 512" viewBox="0 0 512 512" xmlns="http://www.w3.org/2000/svg"><g><g><path d="m286.379 362.667h12.288c5.888 0 10.667-4.779 10.667-10.667s-4.779-10.667-10.667-10.667h-15.851l-4.267-25.643c24.171-9.151 41.451-32.362 41.451-59.69 0-23.573-12.971-43.989-32-55.104v-40.896c0-5.888-4.779-10.667-10.667-10.667h-10.667v-138.666c.001-5.888-4.778-10.667-10.666-10.667s-10.667 4.779-10.667 10.667v138.667h-10.667c-5.888 0-10.667 4.779-10.667 10.667v40.896c-19.029 11.093-32 31.509-32 55.104 0 27.328 17.301 50.539 41.451 59.691l-4.267 25.643h-15.851c-5.888 0-10.667 4.779-10.667 10.667s4.779 10.667 10.667 10.667h12.288l-22.827 136.917c-.512 3.093.363 6.251 2.389 8.64s4.992 3.776 8.128 3.776h85.333c.128-.021.277 0 .427 0 5.888 0 10.667-4.779 10.667-10.667 0-1.643-.384-3.221-1.045-4.629z"/></g></g><g/><g/><g/><g/><g/><g/><g/><g/><g/><g/><g/><g/><g/><g/><g/></svg>